#!OML:ASF G:\JayActor3\Patient Classification 1\Patient 1\Session 6\male.ASF
:FULLY-SPECIFIED
:DEGREES
1485
root 5.29746 16.3971 -23.7143 204.227 -45.3412 -174.988
lowerback 28.942 -1.66466 4.16933
upperback 6.51253 -1.77597 0.979875
thorax -8.6936 -1.29633 -0.620263
lowerneck 1.68503 -0.131598 3.46379
upperneck 4.82024 -0.234114 -0.457707
head 1.19939 -0.101724 -0.719166
rclavicle 8.74653e-014 -6.36111e-015
rhumerus -34.4494 8.33065 -86.7574
rradius 49.1405
rwrist 4.20165
rhand -11.6889 -5.77509
rfingers 7.12502
rthumb 14.3567 -35.2586
lclavicle 8.74653e-014 -6.36111e-015
lhumerus -39.679 -21.9479 89.5812
lradius 48.099
lwrist 26.9654
lhand -17.915 4.98927
lfingers 7.12502
lthumb 8.35235 34.8041
rfemur -56.3302 7.23094 22.9253
rtibia 40.8546
rfoot -11.3559 -5.96422
rtoes 13.4497
lfemur -50.4431 10.6872 -24.3857
ltibia 37.6117
lfoot -14.2662 0.739555
ltoes 3.96567
1486
root 5.29746 16.3974 -23.7153 204.25 -45.325 -174.986
lowerback 28.927 -1.65363 4.14559
upperback 6.5095 -1.76826 0.983838
thorax -8.68886 -1.29191 -0.605325
lowerneck 1.6892 -0.129121 3.45568
upperneck 4.82202 -0.231409 -0.444311
head 1.19925 -0.100415 -0.713596
rclavicle 5.84427e-014 -3.10104e-014
rhumerus -34.4463 8.30462 -86.7354
rradius 49.1192
rwrist 4.19287
rhand -11.6347 -5.6258
rfingers 7.12502
rthumb 14.409 -35.1056
lclavicle 5.84427e-014 -3.10104e-014
lhumerus -39.6846 -21.9418 89.5946
lradius 48.0904
lwrist 26.9834
lhand -17.9063 4.99104
lfingers 7.12502
lthumb 8.36079 34.8056
rfemur -56.3481 7.22129 22.9372
rtibia 40.842
rfoot -11.3379 -5.92886
rtoes 13.4825
lfemur -50.4684 10.6999 -24.3919
ltibia 37.6166
lfoot -14.2696 0.749629
ltoes 3.92731
1487
root 5.29744 16.3977 -23.7163 204.269 -45.3098 -174.98
lowerback 28.9155 -1.64384 4.1272
upperback 6.5067 -1.76067 0.9864
thorax -8.68568 -1.28773 -0.594887
lowerneck 1.68732 -0.126901 3.4516
upperneck 4.83049 -0.229452 -0.430181
head 1.20223 -0.0993719 -0.708542
rclavicle -8.66701e-014 6.44062e-014
rhumerus -34.4389 8.2521 -86.7102
rradius 49.0785
rwrist 4.186
rhand -11.5514 -5.37845
rfingers 7.12502
rthumb 14.4892 -34.8526
lclavicle -8.66701e-014 6.44062e-014
lhumerus -39.69 -21.9467 89.6064
lradius 48.0791
lwrist 26.9947
lhand -17.8858 4.98876
lfingers 7.12502
lthumb 8.3805 34.8025
rfemur -56.3616 7.21451 22.9505
rtibia 40.8276
rfoot -11.3216 -5.89842
rtoes 13.5208
lfemur -50.4905 10.7149 -24.3959
ltibia 37.621
lfoot -14.2739 0.75641
ltoes 3.9005
1488
root 5.29735 16.3981 -23.7173 204.28 -45.2954 -174.968
lowerback 28.9079 -1.63655 4.11902
upperback 6.50442 -1.75369 0.985204
thorax -8.68416 -1.28412 -0.594196
lowerneck 1.68079 -0.125306 3.45315
upperneck 4.84358 -0.228643 -0.414895
head 1.20745 -0.0987738 -0.704128
rclavicle 2.70347e-014 2.32578e-014
rhumerus -34.4305 8.18448 -86.6858
rradius 49.0287
rwrist 4.1755
rhand -11.4462 -5.04941
rfingers 7.12502
rthumb 14.5906 -34.5162
lclavicle 2.70347e-014 2.32578e-014
lhumerus -39.6957 -21.9612 89.6128
lradius 48.0676
lwrist 26.9964
lhand -17.8647 4.98382
lfingers 7.12502
lthumb 8.40091 34.7967
rfemur -56.3695 7.20901 22.9682
rtibia 40.8121
rfoot -11.3082 -5.86938
rtoes 13.5605
lfemur -50.5081 10.7323 -24.3954
ltibia 37.6245
lfoot -14.2795 0.762474
ltoes 3.86941
1489
root 5.2971 16.3986 -23.7183 204.285 -45.2795 -174.954
lowerback 28.9057 -1.63036 4.11455
upperback 6.50209 -1.74702 0.982897
thorax -8.68548 -1.28084 -0.596603
lowerneck 1.67884 -0.122564 3.45438
upperneck 4.85023 -0.225991 -0.399597
head 1.2099 -0.0972945 -0.699593
rclavicle -2.78299e-015 -4.59193e-014
rhumerus -34.4227 8.11747 -86.6645
rradius 48.9762
rwrist 4.16169
rhand -11.3357 -4.70753
rfingers 7.12502
rthumb 14.6971 -34.1666
lclavicle -2.78299e-015 -4.59193e-014
lhumerus -39.7016 -21.9757 89.6183
lradius 48.0548
lwrist 26.9861
lhand -17.8473 4.97472
lfingers 7.12502
lthumb 8.41766 34.787
rfemur -56.3723 7.2081 22.9857
rtibia 40.7955
rfoot -11.2967 -5.84484
rtoes 13.5862
lfemur -50.5203 10.7513 -24.3926
ltibia 37.6274
lfoot -14.2875 0.769879
ltoes 3.84112
1490
root 5.2967 16.399 -23.7193 204.286 -45.262 -174.94
lowerback 28.9079 -1.62567 4.11331
upperback 6.50011 -1.74159 0.977697
thorax -8.68874 -1.2783 -0.603538
lowerneck 1.67989 -0.119587 3.45632
upperneck 4.85237 -0.222826 -0.383793
head 1.21043 -0.0955656 -0.694983
rclavicle 2.50469e-014 3.35946e-014
rhumerus -34.4186 8.07535 -86.6509
rradius 48.9328
rwrist 4.13923
rhand -11.24 -4.42475
rfingers 7.12502
rthumb 14.7892 -33.8771
lclavicle 2.50469e-014 3.35946e-014
lhumerus -39.7095 -21.9927 89.6217
lradius 48.0435
lwrist 26.9702
lhand -17.8389 4.96539
lfingers 7.12502
lthumb 8.42584 34.7773
rfemur -56.3702 7.21107 23.0004
rtibia 40.7792
rfoot -11.2889 -5.8234
rtoes 13.6052
lfemur -50.5266 10.7711 -24.3901
ltibia 37.6293
lfoot -14.2969 0.778482
ltoes 3.80998
